<svg width="65" height="65" viewBox="0 0 65 65" fill="none" xmlns="http://www.w3.org/2000/svg">
<path d="M0 32.5C0 14.5507 14.5507 0 32.5 0V0C50.4493 0 65 14.5507 65 32.5V32.5C65 50.4493 50.4493 65 32.5 65H0V32.5Z" fill="#66CCA1"/>
<path d="M41.9287 40.7571L41.929 40.7571C42.5349 40.7601 43.1354 40.6417 43.6948 40.409C44.2543 40.1763 44.7616 39.834 45.1867 39.4022L45.1873 39.4015C45.427 39.1624 45.7518 39.0281 46.0903 39.0281C46.4287 39.0281 46.7533 39.1623 46.993 39.4012M41.9287 40.7571L41.9285 43.2143C42.8573 43.2176 43.7774 43.0355 44.6349 42.6789C45.4924 42.3222 46.2702 41.798 46.9227 41.1371L46.9926 41.2086C46.9928 41.2084 46.993 41.2082 46.9932 41.2079C47.1134 41.0904 47.2089 40.95 47.2741 40.795C47.3394 40.6398 47.3731 40.4731 47.3731 40.3047C47.3731 40.1363 47.3394 39.9696 47.2741 39.8143C47.2088 39.6593 47.1132 39.5188 46.993 39.4012M41.9287 40.7571C40.9059 40.7552 39.9125 40.4145 39.1038 39.7884C38.3293 39.1888 37.7659 38.3598 37.4929 37.4214H47.8214C48.1605 37.4214 48.4857 37.2867 48.7255 37.0469C48.9652 36.8072 49.0999 36.482 49.0999 36.1429C49.0999 34.7245 48.6793 33.338 47.8913 32.1586C47.1033 30.9793 45.9833 30.0601 44.6729 29.5173C43.3625 28.9745 41.9206 28.8325 40.5294 29.1092C39.1383 29.3859 37.8605 30.0689 36.8575 31.0719C35.8546 32.0748 35.1716 33.3527 34.8949 34.7438C34.6182 36.1349 34.7602 37.5768 35.303 38.8872C35.8458 40.1977 36.7649 41.3177 37.9443 42.1057C39.1236 42.8937 40.5101 43.3143 41.9285 43.3143L41.9287 40.7571ZM46.993 39.4012C46.9928 39.401 46.9927 39.4009 46.9926 39.4008L46.9227 39.4723L46.9933 39.4015C46.9932 39.4014 46.9931 39.4013 46.993 39.4012ZM30.6321 37.0268C30.6282 36.0386 30.2339 35.0921 29.5352 34.3933C28.8364 33.6945 27.8898 33.3003 26.9016 33.2964C26.9015 33.2964 26.9014 33.2964 26.9013 33.2964L18.4571 33.2964V40.7571L26.9013 40.7571L26.9017 40.7571M30.6321 37.0268H30.7321C30.7282 38.0415 30.3234 39.0135 29.6059 39.731C28.8884 40.4485 27.9164 40.8533 26.9017 40.8571V40.7571M30.6321 37.0268C30.6282 38.0149 30.2339 38.9615 29.5352 39.6603C28.8365 40.359 27.8899 40.7533 26.9017 40.7571M30.6321 37.0268L26.9017 40.7571M25.134 21.9H25.1339H17.1785C16.8394 21.9 16.5142 22.0347 16.2744 22.2745C16.0346 22.5143 15.8999 22.8395 15.8999 23.1786V42.0357C15.8999 42.3748 16.0346 42.7 16.2744 42.9398C16.5142 43.1796 16.8394 43.3143 17.1785 43.3143H26.9017C28.5693 43.3143 30.1685 42.6519 31.3477 41.4727C32.5268 40.2936 33.1892 38.6943 33.1892 37.0268C33.189 35.7897 32.8238 34.5802 32.1395 33.5497C31.4805 32.5574 30.5538 31.7735 29.4682 31.2881C30.1487 30.4872 30.5952 29.5129 30.7567 28.4726C30.9254 27.3869 30.7765 26.2756 30.328 25.2725C29.8796 24.2694 29.1507 23.4174 28.2292 22.8191C27.3076 22.2207 26.2328 21.9015 25.134 21.9ZM36.3101 24.6316C36.0704 24.8714 35.9357 25.1966 35.9357 25.5357C35.9357 25.8748 36.0704 26.2 36.3101 26.4398C36.5499 26.6796 36.8751 26.8143 37.2142 26.8143H46.6428C46.9819 26.8143 47.3071 26.6796 47.5469 26.4398C47.7867 26.2 47.9214 25.8748 47.9214 25.5357C47.9214 25.1966 47.7867 24.8714 47.5469 24.6316C47.3071 24.3918 46.9819 24.2571 46.6428 24.2571H37.2142C36.8751 24.2571 36.5499 24.3918 36.3101 24.6316ZM44.7579 32.4886C45.5331 33.0903 46.0954 33.9229 46.3648 34.8643H37.4922C37.7616 33.9229 38.3239 33.0903 39.0992 32.4886C39.9085 31.8603 40.9039 31.5193 41.9285 31.5193C42.9531 31.5193 43.9485 31.8603 44.7579 32.4886ZM25.1339 30.7393H18.4571V24.4571H25.1339C25.9669 24.4571 26.7659 24.7881 27.3549 25.3771C27.944 25.9662 28.2749 26.7652 28.2749 27.5982C28.2749 28.4313 27.944 29.2302 27.3549 29.8193C26.7659 30.4084 25.9669 30.7393 25.1339 30.7393Z" fill="#323237" stroke="#323237" stroke-width="0.2"/>
</svg>
