<svg width="100" height="100" viewBox="0 0 100 100" fill="none" xmlns="http://www.w3.org/2000/svg">
<path d="M20.65 13.965C24.0599 11.3826 28.2226 9.98972 32.5 10C33.9772 9.96687 35.439 10.3069 36.7499 10.9886C38.0609 11.6703 39.1787 12.6716 40 13.9C40.8213 12.6716 41.9391 11.6703 43.2501 10.9886C44.561 10.3069 46.0228 9.96687 47.5 10C51.7774 9.98972 55.9401 11.3826 59.35 13.965C61.975 16.005 64 18.83 64.715 22.245C66.355 22.37 67.855 23.05 69.115 24.075C71.025 25.625 72.415 27.95 73.29 30.41C74.66 34.235 75.03 39.11 73.61 43.26C73.97 43.43 74.325 43.63 74.67 43.86C76.045 44.775 77.09 46.085 77.86 47.63C79.375 50.655 80 54.875 80 60C80 65.705 77.825 69.535 75.065 71.9C73.5387 73.2086 71.7376 74.157 69.795 74.675C69.295 77.465 67.895 80.695 65.7 83.435C62.85 87.01 58.43 90 52.5 90C47.8 90 44.06 87.4 41.63 84.85C41.049 84.2411 40.5048 83.5983 40 82.925C39.4953 83.5984 38.951 84.2412 38.37 84.85C35.94 87.4 32.205 90 27.5 90C21.57 90 17.155 87.01 14.3 83.435C12.2488 80.8878 10.8439 77.8824 10.205 74.675C8.2624 74.157 6.46125 73.2086 4.935 71.9C2.175 69.535 0 65.7 0 60C0 54.875 0.63 50.65 2.14 47.63C2.85565 46.1148 3.95543 44.8134 5.33 43.855C5.66769 43.6314 6.02207 43.4342 6.39 43.265C4.97 39.105 5.34 34.235 6.71 30.41C7.585 27.95 8.975 25.625 10.885 24.075C12.145 23.05 13.645 22.375 15.285 22.245C16.005 18.83 18.03 16.005 20.655 13.965H20.65ZM37.5 22.5V22.45L37.49 22.2C37.4164 20.8965 37.1571 19.6102 36.72 18.38C36.4088 17.4513 35.8789 16.611 35.175 15.93C34.4365 15.2869 33.4782 14.9537 32.5 15C29.3347 14.9891 26.2522 16.0108 23.72 17.91C21.4 19.715 20 22.16 20 25C19.9997 25.3959 19.9054 25.7861 19.7248 26.1384C19.5442 26.4908 19.2825 26.7952 18.9613 27.0266C18.64 27.258 18.2684 27.4098 17.877 27.4695C17.4856 27.5292 17.0856 27.4951 16.71 27.37C15.77 27.06 14.93 27.235 14.035 27.955C13.055 28.755 12.1 30.175 11.415 32.09C10.02 36 10.165 40.735 12.08 43.615C12.3535 44.0252 12.4996 44.507 12.5 45H16.25C19.2337 45 22.0952 46.1853 24.205 48.295C26.3147 50.4048 27.5 53.2663 27.5 56.25V57.925C29.168 58.5147 30.5739 59.6752 31.4691 61.2012C32.3643 62.7272 32.6912 64.5206 32.392 66.2643C32.0928 68.0081 31.1868 69.5899 29.8341 70.7303C28.4815 71.8706 26.7692 72.4961 25 72.4961C23.2308 72.4961 21.5185 71.8706 20.1659 70.7303C18.8132 69.5899 17.9072 68.0081 17.608 66.2643C17.3088 64.5206 17.6357 62.7272 18.5309 61.2012C19.4261 59.6752 20.832 58.5147 22.5 57.925V56.25C22.5 52.8 19.7 50 16.25 50H7.5C7.2011 49.9995 6.90473 49.9453 6.625 49.84L6.61 49.87C5.62 51.845 5 55.125 5 60C5 64.295 6.575 66.715 8.19 68.1C9.925 69.59 11.85 70 12.5 70C13.163 70 13.7989 70.2634 14.2678 70.7322C14.7366 71.2011 15 71.8369 15 72.5C15 74.34 16 77.555 18.2 80.315C20.345 82.99 23.43 85 27.5 85C30.3 85 32.81 83.435 34.75 81.4C35.705 80.4 36.45 79.365 36.935 78.515C37.1558 78.138 37.3448 77.7433 37.5 77.335V37.5H32.075C31.4853 39.168 30.3248 40.5739 28.7988 41.4691C27.2728 42.3643 25.4794 42.6912 23.7357 42.392C21.9919 42.0928 20.4101 41.1868 19.2697 39.8341C18.1294 38.4815 17.5039 36.7692 17.5039 35C17.5039 33.2308 18.1294 31.5185 19.2697 30.1658C20.4101 28.8132 21.9919 27.9072 23.7357 27.608C25.4794 27.3088 27.2728 27.6357 28.7988 28.5309C30.3248 29.4261 31.4853 30.832 32.075 32.5H37.5V22.5ZM42.5 72.495V77.33C42.6553 77.7383 42.8443 78.133 43.065 78.51C43.555 79.36 44.295 80.395 45.245 81.395C47.19 83.43 49.705 84.995 52.5 84.995C56.57 84.995 59.655 82.985 61.8 80.31C64 77.55 65 74.335 65 72.495C65 71.8319 65.2634 71.1961 65.7322 70.7272C66.2011 70.2584 66.837 69.995 67.5 69.995C68.15 69.995 70.075 69.585 71.81 68.095C73.425 66.71 75 64.29 75 59.995C75 55.12 74.375 51.845 73.39 49.865C73.0605 49.1277 72.5433 48.4898 71.89 48.015C71.327 47.6551 70.6677 47.4755 70 47.5C69.5478 47.4998 69.1041 47.3769 68.7162 47.1444C68.3283 46.912 68.0107 46.5787 67.7973 46.18C67.5839 45.7813 67.4825 45.3322 67.5042 44.8805C67.5258 44.4288 67.6695 43.9915 67.92 43.615C69.84 40.735 69.98 36 68.585 32.09C67.9 30.175 66.945 28.75 65.965 27.955C65.07 27.235 64.23 27.055 63.29 27.37C62.9144 27.4951 62.5144 27.5292 62.123 27.4695C61.7316 27.4098 61.36 27.258 61.0387 27.0266C60.7175 26.7952 60.4558 26.4908 60.2752 26.1384C60.0946 25.7861 60.0003 25.3959 60 25C60 22.16 58.6 19.715 56.275 17.91C53.7441 16.0118 50.6636 14.9902 47.5 15C46.5218 14.9537 45.5635 15.2869 44.825 15.93C44.119 16.6102 43.5873 17.4506 43.275 18.38C42.799 19.686 42.5373 21.0604 42.5 22.45V67.5H46.25C49.7 67.5 52.5 64.7 52.5 61.25V52.075C50.832 51.4853 49.4261 50.3248 48.5309 48.7988C47.6357 47.2728 47.3088 45.4794 47.608 43.7357C47.9072 41.9919 48.8132 40.4101 50.1658 39.2697C51.5185 38.1294 53.2308 37.5039 55 37.5039C56.7692 37.5039 58.4815 38.1294 59.8342 39.2697C61.1868 40.4101 62.0928 41.9919 62.392 43.7357C62.6912 45.4794 62.3643 47.2728 61.4691 48.7988C60.5739 50.3248 59.168 51.4853 57.5 52.075V61.25C57.5 64.2337 56.3147 67.0952 54.2049 69.2049C52.0952 71.3147 49.2337 72.5 46.25 72.5H42.5V72.495ZM22.5 35C22.5 35.663 22.7634 36.2989 23.2322 36.7678C23.7011 37.2366 24.337 37.5 25 37.5C25.663 37.5 26.2989 37.2366 26.7678 36.7678C27.2366 36.2989 27.5 35.663 27.5 35C27.5 34.337 27.2366 33.7011 26.7678 33.2322C26.2989 32.7634 25.663 32.5 25 32.5C24.337 32.5 23.7011 32.7634 23.2322 33.2322C22.7634 33.7011 22.5 34.337 22.5 35ZM55 47.5C55.663 47.5 56.2989 47.2366 56.7678 46.7678C57.2366 46.2989 57.5 45.663 57.5 45C57.5 44.337 57.2366 43.7011 56.7678 43.2322C56.2989 42.7634 55.663 42.5 55 42.5C54.337 42.5 53.7011 42.7634 53.2322 43.2322C52.7634 43.7011 52.5 44.337 52.5 45C52.5 45.663 52.7634 46.2989 53.2322 46.7678C53.7011 47.2366 54.337 47.5 55 47.5ZM25 62.5C24.337 62.5 23.7011 62.7634 23.2322 63.2322C22.7634 63.7011 22.5 64.3369 22.5 65C22.5 65.663 22.7634 66.2989 23.2322 66.7678C23.7011 67.2366 24.337 67.5 25 67.5C25.663 67.5 26.2989 67.2366 26.7678 66.7678C27.2366 66.2989 27.5 65.663 27.5 65C27.5 64.3369 27.2366 63.7011 26.7678 63.2322C26.2989 62.7634 25.663 62.5 25 62.5Z" fill="#323237"/>
</svg>
